<svg width="21" height="17" viewBox="0 0 21 17" fill="none" xmlns="http://www.w3.org/2000/svg">
<path d="M4.61476 5.31985H2.4459C2.06243 5.31985 1.69465 5.47219 1.42349 5.74335C1.15234 6.01451 1 6.38228 1 6.76576V9.65756C1 10.041 1.15234 10.4088 1.42349 10.68C1.69465 10.9511 2.06243 11.1035 2.4459 11.1035H4.61476V5.31985Z" stroke="white" stroke-width="1.5" stroke-linecap="round" stroke-linejoin="round"/>
<path d="M4.61469 11.1035L10.2682 15.1665C10.4776 15.3114 10.7217 15.3984 10.9756 15.4187C11.2295 15.439 11.4842 15.3919 11.7141 15.2821C11.9633 15.1702 12.1758 14.9898 12.3267 14.7621C12.4777 14.5343 12.5611 14.2685 12.5671 13.9953V2.42805C12.5733 2.1684 12.5095 1.91187 12.3822 1.68543C12.255 1.45898 12.0692 1.27099 11.8442 1.1412C11.6144 1.03141 11.3596 0.984293 11.1057 1.00461C10.8518 1.02492 10.6078 1.11194 10.3983 1.25687L4.61469 5.31986" stroke="white" stroke-width="1.5" stroke-linecap="round" stroke-linejoin="round"/>
<path d="M18.3509 3.8739C19.3562 5.0893 19.8718 6.6361 19.7968 8.21161C19.7751 9.9973 19.2759 11.7446 18.3509 13.2723" stroke="white" stroke-width="1.5" stroke-linecap="round" stroke-linejoin="round"/>
<path d="M15.459 6.04285C15.9616 6.65054 16.2194 7.42395 16.1819 8.2117C16.2194 8.99945 15.9616 9.77286 15.459 10.3806" stroke="white" stroke-width="1.5" stroke-linecap="round" stroke-linejoin="round"/>
</svg>
