<svg width="31" height="31" viewBox="0 0 31 31" fill="none" xmlns="http://www.w3.org/2000/svg">
<circle cx="15.4998" cy="15.5" r="15.5" fill="url(#paint0_linear_0_22)"/>
<path d="M13.6941 9.82925H11.4734C10.9828 9.82925 10.5851 10.227 10.5851 10.7175V20.4886C10.5851 20.9792 10.9828 21.3769 11.4734 21.3769H13.6941C14.1847 21.3769 14.5824 20.9792 14.5824 20.4886V10.7175C14.5824 10.227 14.1847 9.82925 13.6941 9.82925Z" fill="white"/>
<path d="M20.2822 9.82928H18.0615C17.5709 9.82928 17.1732 10.227 17.1732 10.7176V20.4886C17.1732 20.9792 17.5709 21.3769 18.0615 21.3769H20.2822C20.7728 21.3769 21.1705 20.9792 21.1705 20.4886V10.7176C21.1705 10.227 20.7728 9.82928 20.2822 9.82928Z" fill="white"/>
<defs>
<linearGradient id="paint0_linear_0_22" x1="-3.9971" y1="-4.76924" x2="40.9933" y2="-2.0104" gradientUnits="userSpaceOnUse">
<stop stop-color="#B5179E"/>
<stop offset="1" stop-color="#7209B7"/>
</linearGradient>
</defs>
</svg>
