<svg width="23" height="26" viewBox="0 0 23 26" fill="none" xmlns="http://www.w3.org/2000/svg">
<path d="M0 9.75C0 8.67304 0.812957 7.8 1.81579 7.8C2.81862 7.8 3.63158 8.67304 3.63158 9.75V16.25C3.63158 17.327 2.81862 18.2 1.81579 18.2C0.812957 18.2 0 17.327 0 16.25V9.75Z" fill="url(#paint0_linear_9_56)"/>
<path d="M4.84211 4.55C4.84211 3.47304 5.65506 2.6 6.6579 2.6C7.66073 2.6 8.47368 3.47304 8.47368 4.55V21.45C8.47368 22.527 7.66073 23.4 6.6579 23.4C5.65506 23.4 4.84211 22.527 4.84211 21.45V4.55Z" fill="url(#paint1_linear_9_56)"/>
<path d="M9.68421 5.85C9.68421 4.77304 10.4972 3.9 11.5 3.9C12.5028 3.9 13.3158 4.77304 13.3158 5.85V20.15C13.3158 21.227 12.5028 22.1 11.5 22.1C10.4972 22.1 9.68421 21.227 9.68421 20.15V5.85Z" fill="url(#paint2_linear_9_56)"/>
<path d="M14.5263 1.95C14.5263 0.873044 15.3393 0 16.3421 0C17.3449 0 18.1579 0.873045 18.1579 1.95V24.05C18.1579 25.127 17.3449 26 16.3421 26C15.3393 26 14.5263 25.127 14.5263 24.05V1.95Z" fill="url(#paint3_linear_9_56)"/>
<path d="M19.3684 3.25C19.3684 2.17304 20.1814 1.3 21.1842 1.3C22.187 1.3 23 2.17304 23 3.25V22.75C23 23.827 22.187 24.7 21.1842 24.7C20.1814 24.7 19.3684 23.827 19.3684 22.75V3.25Z" fill="url(#paint4_linear_9_56)"/>
<defs>
<linearGradient id="paint0_linear_9_56" x1="-2.96541" y1="-4.00001" x2="30.4418" y2="-2.18783" gradientUnits="userSpaceOnUse">
<stop stop-color="#B5179E"/>
<stop offset="1" stop-color="#7209B7"/>
</linearGradient>
<linearGradient id="paint1_linear_9_56" x1="-2.96541" y1="-4.00001" x2="30.4418" y2="-2.18783" gradientUnits="userSpaceOnUse">
<stop stop-color="#B5179E"/>
<stop offset="1" stop-color="#7209B7"/>
</linearGradient>
<linearGradient id="paint2_linear_9_56" x1="-2.96541" y1="-4.00001" x2="30.4418" y2="-2.18783" gradientUnits="userSpaceOnUse">
<stop stop-color="#B5179E"/>
<stop offset="1" stop-color="#7209B7"/>
</linearGradient>
<linearGradient id="paint3_linear_9_56" x1="-2.96541" y1="-4.00001" x2="30.4418" y2="-2.18783" gradientUnits="userSpaceOnUse">
<stop stop-color="#B5179E"/>
<stop offset="1" stop-color="#7209B7"/>
</linearGradient>
<linearGradient id="paint4_linear_9_56" x1="-2.96541" y1="-4.00001" x2="30.4418" y2="-2.18783" gradientUnits="userSpaceOnUse">
<stop stop-color="#B5179E"/>
<stop offset="1" stop-color="#7209B7"/>
</linearGradient>
</defs>
</svg>
